M48
; DRILL file {KiCad 8.0.8} date 2025-03-11T11:38:12-0700
; FORMAT={-:-/ absolute / inch / decimal}
; #@! TF.CreationDate,2025-03-11T11:38:12-07:00
; #@! TF.GenerationSoftware,Kicad,Pcbnew,8.0.8
; #@! TF.FileFunction,Plated,1,2,PTH
FMAT,2
INCH
; #@! TA.AperFunction,Plated,PTH,ComponentDrill
T1C0.0335
; #@! TA.AperFunction,Plated,PTH,ComponentDrill
T2C0.0394
; #@! TA.AperFunction,Plated,PTH,ComponentDrill
T3C0.0402
%
G90
G05
T1
X6.6366Y-4.2791
X6.6366Y-4.5791
X7.5366Y-4.2791
X7.5366Y-4.5791
T2
X3.8669Y-4.711
X3.8669Y-4.811
X3.8719Y-3.4404
X3.8719Y-3.5404
X3.8719Y-4.0992
X3.8719Y-4.1992
X5.1947Y-2.3045
X5.2947Y-2.3045
X6.9772Y-2.7984
X6.9772Y-2.8984
X6.9772Y-2.9984
X6.9772Y-3.0984
T3
X4.8071Y-3.1992
X4.8071Y-3.2992
X4.8071Y-3.3992
X4.8071Y-3.4992
X4.8071Y-3.5992
X4.8071Y-3.6992
X4.8071Y-3.7992
X4.8071Y-3.8992
X4.8071Y-3.9992
X4.8071Y-4.0992
X4.8071Y-4.1992
X4.8071Y-4.2992
X4.8071Y-4.3992
X4.8071Y-4.4992
X4.8071Y-4.5992
X4.8071Y-4.6992
X4.8071Y-4.7992
X4.8071Y-4.8992
X4.8071Y-4.9992
X5.8071Y-3.1992
X5.8071Y-3.2992
X5.8071Y-3.3992
X5.8071Y-3.4992
X5.8071Y-3.5992
X5.8071Y-3.6992
X5.8071Y-3.7992
X5.8071Y-3.8992
X5.8071Y-3.9992
X5.8071Y-4.0992
X5.8071Y-4.1992
X5.8071Y-4.2992
X5.8071Y-4.3992
X5.8071Y-4.4992
X5.8071Y-4.5992
X5.8071Y-4.6992
X5.8071Y-4.7992
X5.8071Y-4.8992
X5.8071Y-4.9992
M30
