%TF.GenerationSoftware,KiCad,Pcbnew,8.0.8*%
%TF.CreationDate,2025-03-11T11:38:08-07:00*%
%TF.ProjectId,final-PCB-display,66696e61-6c2d-4504-9342-2d646973706c,rev?*%
%TF.SameCoordinates,Original*%
%TF.FileFunction,Copper,L2,Bot*%
%TF.FilePolarity,Positive*%
%FSLAX46Y46*%
G04 Gerber Fmt 4.6, Leading zero omitted, Abs format (unit mm)*
G04 Created by KiCad (PCBNEW 8.0.8) date 2025-03-11 11:38:08*
%MOMM*%
%LPD*%
G01*
G04 APERTURE LIST*
%TA.AperFunction,ComponentPad*%
%ADD10R,1.700000X1.700000*%
%TD*%
%TA.AperFunction,ComponentPad*%
%ADD11O,1.700000X1.700000*%
%TD*%
%TA.AperFunction,ComponentPad*%
%ADD12C,1.700000*%
%TD*%
%TA.AperFunction,ComponentPad*%
%ADD13R,1.530000X1.530000*%
%TD*%
%TA.AperFunction,ComponentPad*%
%ADD14C,1.530000*%
%TD*%
%TA.AperFunction,Conductor*%
%ADD15C,0.508000*%
%TD*%
G04 APERTURE END LIST*
D10*
%TO.P,BT1,1,+*%
%TO.N,Net-(BT1-+)*%
X131945000Y-58535000D03*
D11*
%TO.P,BT1,2,-*%
%TO.N,Net-(BT1--)*%
X134485000Y-58535000D03*
%TD*%
D10*
%TO.P,green1,1,K*%
%TO.N,Net-(BT1--)*%
X98345000Y-104120000D03*
D11*
%TO.P,green1,2,A*%
%TO.N,Net-(U1-IO27)*%
X98345000Y-106660000D03*
%TD*%
D10*
%TO.P,J1,1,Pin_1*%
%TO.N,Net-(BT1--)*%
X177220000Y-71080000D03*
D11*
%TO.P,J1,2,Pin_2*%
%TO.N,Net-(BT1-+)*%
X177220000Y-73620000D03*
%TO.P,J1,3,Pin_3*%
%TO.N,Net-(J1-Pin_3)*%
X177220000Y-76160000D03*
%TO.P,J1,4,Pin_4*%
%TO.N,Net-(J1-Pin_4)*%
X177220000Y-78700000D03*
%TD*%
D12*
%TO.P,M1,1*%
%TO.N,Net-(U1-IO16)*%
X168570000Y-116310000D03*
%TO.P,M1,2,-*%
%TO.N,Net-(M1--)*%
X168570000Y-108690000D03*
%TO.P,M1,3*%
%TO.N,Net-(U1-IO18)*%
X191430000Y-108690000D03*
%TO.P,M1,4*%
%TO.N,Net-(U1-IO19)*%
X191430000Y-116310000D03*
%TD*%
D10*
%TO.P,yellow1,1,K*%
%TO.N,Net-(BT1--)*%
X98345000Y-87385000D03*
D11*
%TO.P,yellow1,2,A*%
%TO.N,Net-(U1-IO26)*%
X98345000Y-89925000D03*
%TD*%
D13*
%TO.P,U1,1,3V3*%
%TO.N,Net-(BT1-+)*%
X122100000Y-81260000D03*
D14*
%TO.P,U1,2,EN*%
%TO.N,unconnected-(U1-EN-Pad2)*%
X122100000Y-83800000D03*
%TO.P,U1,3,SENSOR_VP*%
%TO.N,unconnected-(U1-SENSOR_VP-Pad3)*%
X122100000Y-86340000D03*
%TO.P,U1,4,SENSOR_VN*%
%TO.N,unconnected-(U1-SENSOR_VN-Pad4)*%
X122100000Y-88880000D03*
%TO.P,U1,5,IO34*%
%TO.N,unconnected-(U1-IO34-Pad5)*%
X122100000Y-91420000D03*
%TO.P,U1,6,IO35*%
%TO.N,unconnected-(U1-IO35-Pad6)*%
X122100000Y-93960000D03*
%TO.P,U1,7,IO32*%
%TO.N,unconnected-(U1-IO32-Pad7)*%
X122100000Y-96500000D03*
%TO.P,U1,8,IO33*%
%TO.N,unconnected-(U1-IO33-Pad8)*%
X122100000Y-99040000D03*
%TO.P,U1,9,IO25*%
%TO.N,unconnected-(U1-IO25-Pad9)*%
X122100000Y-101580000D03*
%TO.P,U1,10,IO26*%
%TO.N,Net-(U1-IO26)*%
X122100000Y-104120000D03*
%TO.P,U1,11,IO27*%
%TO.N,Net-(U1-IO27)*%
X122100000Y-106660000D03*
%TO.P,U1,12,IO14*%
%TO.N,Net-(U1-IO14)*%
X122100000Y-109200000D03*
%TO.P,U1,13,IO12*%
%TO.N,unconnected-(U1-IO12-Pad13)*%
X122100000Y-111740000D03*
%TO.P,U1,14,GND1*%
%TO.N,unconnected-(U1-GND1-Pad14)*%
X122100000Y-114280000D03*
%TO.P,U1,15,IO13*%
%TO.N,unconnected-(U1-IO13-Pad15)*%
X122100000Y-116820000D03*
%TO.P,U1,16,SD2*%
%TO.N,unconnected-(U1-SD2-Pad16)*%
X122100000Y-119360000D03*
%TO.P,U1,17,SD3*%
%TO.N,unconnected-(U1-SD3-Pad17)*%
X122100000Y-121900000D03*
%TO.P,U1,18,CMD*%
%TO.N,unconnected-(U1-CMD-Pad18)*%
X122100000Y-124440000D03*
%TO.P,U1,19,EXT_5V*%
%TO.N,unconnected-(U1-EXT_5V-Pad19)*%
X122100000Y-126980000D03*
%TO.P,U1,20,CLK*%
%TO.N,unconnected-(U1-CLK-Pad20)*%
X147500000Y-126980000D03*
%TO.P,U1,21,SD0*%
%TO.N,unconnected-(U1-SD0-Pad21)*%
X147500000Y-124440000D03*
%TO.P,U1,22,SD1*%
%TO.N,unconnected-(U1-SD1-Pad22)*%
X147500000Y-121900000D03*
%TO.P,U1,23,IO15*%
%TO.N,unconnected-(U1-IO15-Pad23)*%
X147500000Y-119360000D03*
%TO.P,U1,24,IO2*%
%TO.N,unconnected-(U1-IO2-Pad24)*%
X147500000Y-116820000D03*
%TO.P,U1,25,IO0*%
%TO.N,unconnected-(U1-IO0-Pad25)*%
X147500000Y-114280000D03*
%TO.P,U1,26,IO4*%
%TO.N,unconnected-(U1-IO4-Pad26)*%
X147500000Y-111740000D03*
%TO.P,U1,27,IO16*%
%TO.N,Net-(U1-IO16)*%
X147500000Y-109200000D03*
%TO.P,U1,28,IO17*%
%TO.N,Net-(M1--)*%
X147500000Y-106660000D03*
%TO.P,U1,29,IO5*%
%TO.N,unconnected-(U1-IO5-Pad29)*%
X147500000Y-104120000D03*
%TO.P,U1,30,IO18*%
%TO.N,Net-(U1-IO18)*%
X147500000Y-101580000D03*
%TO.P,U1,31,IO19*%
%TO.N,Net-(U1-IO19)*%
X147500000Y-99040000D03*
%TO.P,U1,32,GND2*%
%TO.N,unconnected-(U1-GND2-Pad32)*%
X147500000Y-96500000D03*
%TO.P,U1,33,IO21*%
%TO.N,Net-(Brd1-SDA)*%
X147500000Y-93960000D03*
%TO.P,U1,34,RXD0*%
%TO.N,unconnected-(U1-RXD0-Pad34)*%
X147500000Y-91420000D03*
%TO.P,U1,35,TXD0*%
%TO.N,unconnected-(U1-TXD0-Pad35)*%
X147500000Y-88880000D03*
%TO.P,U1,36,IO22*%
%TO.N,Net-(Brd1-SCL)*%
X147500000Y-86340000D03*
%TO.P,U1,37,IO23*%
%TO.N,unconnected-(U1-IO23-Pad37)*%
X147500000Y-83800000D03*
%TO.P,U1,38,GND3*%
%TO.N,Net-(BT1--)*%
X147500000Y-81260000D03*
%TD*%
D10*
%TO.P,red1,1,K*%
%TO.N,Net-(BT1--)*%
X98220000Y-119660000D03*
D11*
%TO.P,red1,2,A*%
%TO.N,Net-(U1-IO14)*%
X98220000Y-122200000D03*
%TD*%
D15*
%TO.N,Net-(BT1-+)*%
X127720000Y-47160000D02*
X150760000Y-47160000D01*
X150760000Y-47160000D02*
X177220000Y-73620000D01*
X131945000Y-58535000D02*
X128595000Y-58535000D01*
X124220000Y-50660000D02*
X127720000Y-47160000D01*
X124220000Y-54160000D02*
X124220000Y-50660000D01*
X128595000Y-58535000D02*
X124220000Y-54160000D01*
%TO.N,Net-(BT1--)*%
X134485000Y-58535000D02*
X134485000Y-65395000D01*
X105220000Y-69160000D02*
X98345000Y-76035000D01*
X98345000Y-76035000D02*
X98345000Y-87385000D01*
X134485000Y-65395000D02*
X130720000Y-69160000D01*
X130720000Y-69160000D02*
X105220000Y-69160000D01*
%TO.N,Net-(U1-IO18)*%
X184320000Y-101580000D02*
X191430000Y-108690000D01*
X147500000Y-101580000D02*
X184320000Y-101580000D01*
%TD*%
M02*
